# xmcd
#
# Track frame offsets: 
#        150
#        23848
#        45066
#        68168
#        100723
#        116524
#        132145
#        150194
#        163494
#        177319
#        193838
#        219757
#        245913
#        264523
#        279723
#        301603
#
# Disc length: 4468 seconds
#
# Revision: 0
# Processed by: cddbd v1.5.2PL0 Copyright (c) Steve Scherf et al.
# Submitted via: ExactAudioCopy v0.99pb4
#
DISCID=d2117210
DTITLE=Various Artist - Planter's Club III - Selected By DJ Samir
DYEAR=2004
DGENRE=Blues
TTITLE0=White Barry - Midnight and You
TTITLE1=Clifford Linda - Neber Gonna Stop
TTITLE2=Sadane Marc - One Minute From Love
TTITLE3=Prince Phillip Mitchell - Star In The Ghetto
TTITLE4=Ruffin David - No Matter Where
TTITLE5=Womack Bobby - Stop Before We Start
TTITLE6=Robbins Rockie - Hang Tough
TTITLE7=Gaye Marvin - I'm Gonna Give You Respect
TTITLE8=Starr Edwin - There You Go
TTITLE9=Escovedo Coke - Why Can't We Be Lovers
TTITLE10=Ayers Roy - What You Won't Do For Love
TTITLE11=Burke Solomon - You And Your Baby Blues
TTITLE12=Davis Tyrone - In The Mood
TTITLE13=Reynolds Jeannie - Look What Your Love Has Done To Me Ma
TTITLE14=Bland Bobby - I Just Tripped On A Piece Of Your Broken Heart
TTITLE15=Hayes Isaac - Don't Take Your Love Away
EXTD=
EXTT0=
EXTT1=
EXTT2=
EXTT3=
EXTT4=
EXTT5=
EXTT6=
EXTT7=
EXTT8=
EXTT9=
EXTT10=
EXTT11=
EXTT12=
EXTT13=
EXTT14=
EXTT15=
PLAYORDER=
